<svg width="100%" height="100%" viewBox="0 0 140 40" fill="none" xmlns="http://www.w3.org/2000/svg" data-fc-idx="0">
<path d="M32.6063 8.63952L24.5336 2.83356C21.8266 0.886209 18.1772 0.886209 15.4685 2.83356L7.39408 8.63952C5.36816 10.097 4.16602 12.4397 4.16602 14.9353V25.0657C4.16602 27.5613 5.36644 29.904 7.39408 31.3615L15.4668 37.1674C18.1738 39.1148 21.8232 39.1148 24.5319 37.1674L32.6046 31.3615C34.6305 29.904 35.8327 27.5613 35.8327 25.0657V14.9353C35.8327 12.4397 34.6323 10.097 32.6063 8.63952ZM17.2812 5.35154C18.9064 4.18278 21.0957 4.18278 22.7192 5.35154L29.5245 10.2448C30.0163 10.5989 30.0163 11.3294 29.5245 11.6834L22.7192 16.5767C21.094 17.7455 18.9047 17.7455 17.2812 16.5767L10.476 11.6834C9.9841 11.3294 9.9841 10.5989 10.476 10.2448L17.2812 5.35154ZM32.7302 25.064C32.7302 26.561 32.0096 27.9669 30.7937 28.8418L22.7209 34.6477C21.0957 35.8165 18.9064 35.8165 17.2829 34.6477L9.21019 28.8418C7.99429 27.9669 7.27369 26.561 7.27369 25.064V14.9336C7.27369 14.9284 7.27369 14.9233 7.27369 14.9181C7.27541 14.2014 8.09232 13.7889 8.67361 14.2066L15.4703 19.0947C18.1772 21.0421 21.8266 21.0421 24.5353 19.0947L31.332 14.2066C31.915 13.7872 32.7302 14.1997 32.7319 14.9181C32.7319 14.9233 32.7319 14.9284 32.7319 14.9336V25.064H32.7302Z" fill="#225AEA" style="fill: rgb(34, 90, 234) !important;"/>
<path d="M24.4909 22.1486C23.1409 22.4133 22.2449 23.4806 21.5793 24.7078C21.3833 25.0688 21.397 25.5225 21.7014 25.7649C21.9267 25.9436 22.2242 25.9333 22.4427 25.7459C23.2785 25.0344 24.2536 24.6322 24.8848 24.4947C25.5159 24.3572 26.553 24.3194 27.5591 24.6288C27.8239 24.7095 28.1025 24.5927 28.2539 24.3331C28.4602 23.9791 28.3227 23.5562 28.0269 23.2984C26.9503 22.3617 25.8616 21.8787 24.4909 22.1486Z" fill="#225AEA" style="fill: rgb(34, 90, 234) !important;"/>
<path d="M15.5236 22.1486C16.8737 22.4133 17.7697 23.4806 18.4353 24.7078C18.6313 25.0688 18.6176 25.5225 18.3132 25.7649C18.0879 25.9436 17.7903 25.9333 17.5719 25.7459C16.7361 25.0344 15.761 24.6322 15.1298 24.4947C14.4986 24.3572 13.4616 24.3194 12.4555 24.6288C12.1907 24.7095 11.9121 24.5927 11.7607 24.3331C11.5543 23.9791 11.6919 23.5562 11.9877 23.2984C13.0643 22.3617 14.153 21.8787 15.5236 22.1486Z" fill="#225AEA" style="fill: rgb(34, 90, 234) !important;"/>
<path d="M44.6152 26.8762H50.152C51.99 26.8762 53.585 26.5032 54.9369 25.7573C56.2888 25.0114 57.3369 23.9857 58.0812 22.6804C58.8256 21.3595 59.1977 19.8598 59.1977 18.1815C59.1977 16.5032 58.8256 15.0114 58.0812 13.706C57.3369 12.4006 56.2888 11.375 54.9369 10.6291C53.585 9.88315 51.99 9.51019 50.152 9.51019H44.6152V26.8762ZM48.1469 23.7293V12.657H50.2432C51.352 12.657 52.309 12.8824 53.1141 13.333C53.9192 13.7837 54.542 14.4208 54.9825 15.2445C55.4382 16.0681 55.666 17.0471 55.666 18.1815C55.666 19.3004 55.4382 20.2794 54.9825 21.1186C54.542 21.9422 53.9192 22.5871 53.1141 23.0533C52.309 23.504 51.352 23.7293 50.2432 23.7293H48.1469Z" fill="#151E3A" style="fill: rgb(21, 30, 58) !important;"/>
<path d="M60.5251 26.8762H63.9429V20.023C63.9429 19.0751 64.2011 18.3447 64.7176 17.8319C65.2341 17.3035 65.91 17.0393 66.7455 17.0393H67.8164V14.009H67.0872C66.3277 14.009 65.6518 14.1567 65.0594 14.4519C64.4821 14.7316 64.034 15.2678 63.7151 16.0603V14.1489H60.5251V26.8762Z" fill="#151E3A" style="fill: rgb(21, 30, 58) !important;"/>
<path d="M74.8055 27.1559C76.0359 27.1559 77.1524 26.8684 78.1549 26.2934C79.1575 25.7184 79.955 24.9337 80.5474 23.9391C81.155 22.929 81.4588 21.7868 81.4588 20.5125C81.4588 19.2227 81.155 18.0805 80.5474 17.0859C79.955 16.0914 79.1575 15.3066 78.1549 14.7316C77.1524 14.1567 76.0359 13.8692 74.8055 13.8692C73.5751 13.8692 72.4511 14.1567 71.4333 14.7316C70.4308 15.3066 69.6257 16.0914 69.0181 17.0859C68.4257 18.0805 68.1295 19.2227 68.1295 20.5125C68.1295 21.7868 68.4257 22.929 69.0181 23.9391C69.6257 24.9337 70.4308 25.7184 71.4333 26.2934C72.4511 26.8684 73.5751 27.1559 74.8055 27.1559ZM74.8055 24.009C73.8789 24.009 73.1194 23.6827 72.527 23.03C71.9498 22.3773 71.6612 21.5382 71.6612 20.5125C71.6612 19.5024 71.9498 18.671 72.527 18.0183C73.1194 17.3501 73.8789 17.016 74.8055 17.016C75.7321 17.016 76.484 17.3501 77.0613 18.0183C77.6385 18.671 77.9271 19.5024 77.9271 20.5125C77.9271 21.5382 77.6385 22.3773 77.0613 23.03C76.484 23.6827 75.7321 24.009 74.8055 24.009Z" fill="#151E3A" style="fill: rgb(21, 30, 58) !important;"/>
<path d="M82.7887 31.5382H86.2065V25.8971C86.647 26.3167 87.171 26.6353 87.7786 26.8528C88.4014 27.0549 89.0622 27.1559 89.7609 27.1559C90.9762 27.1559 92.0622 26.8606 93.0192 26.2701C93.9762 25.6796 94.7281 24.8793 95.2749 23.8692C95.837 22.8591 96.118 21.7402 96.118 20.5125C96.118 19.2693 95.837 18.1504 95.2749 17.1559C94.7129 16.1458 93.9534 15.3455 92.9964 14.7549C92.0395 14.1644 90.9686 13.8692 89.7837 13.8692C88.128 13.8692 86.8596 14.4053 85.9786 15.4776V14.1489H82.7887V31.5382ZM89.3508 24.009C88.4242 24.009 87.6647 23.6905 87.0723 23.0533C86.4951 22.4006 86.2065 21.5537 86.2065 20.5125C86.2065 19.4869 86.4951 18.6477 87.0723 17.995C87.6647 17.3424 88.4242 17.016 89.3508 17.016C90.2926 17.016 91.0673 17.3501 91.6749 18.0183C92.2825 18.671 92.5863 19.5024 92.5863 20.5125C92.5863 21.5382 92.2825 22.3773 91.6749 23.03C91.0673 23.6827 90.2926 24.009 89.3508 24.009Z" fill="#151E3A" style="fill: rgb(21, 30, 58) !important;"/>
<path d="M102.312 27.1559C103.755 27.1559 104.917 26.7907 105.798 26.0603C106.679 25.3299 107.12 24.3742 107.12 23.1932C107.12 22.2763 106.846 21.5071 106.3 20.8855C105.753 20.2483 104.963 19.7744 103.93 19.4636L101.948 18.8575C101.051 18.5933 100.603 18.2126 100.603 17.7153C100.603 17.389 100.725 17.1326 100.968 16.9461C101.226 16.7596 101.575 16.6664 102.016 16.6664C102.624 16.6664 103.163 16.8295 103.634 17.1559C104.12 17.4667 104.454 17.8863 104.636 18.4146L107.165 17.2025C106.786 16.1458 106.132 15.3299 105.206 14.7549C104.294 14.1644 103.231 13.8692 102.016 13.8692C101.089 13.8692 100.269 14.0401 99.5552 14.382C98.8412 14.7083 98.2868 15.1668 97.8919 15.7573C97.4969 16.3478 97.2994 17.0393 97.2994 17.8319C97.2994 18.7332 97.5729 19.518 98.1197 20.1862C98.6666 20.8389 99.4488 21.3128 100.467 21.6081L102.586 22.2142C103.406 22.4473 103.816 22.8202 103.816 23.333C103.816 24.0945 103.315 24.4752 102.312 24.4752C101.644 24.4752 101.036 24.281 100.489 23.8925C99.9425 23.504 99.5096 22.9678 99.1906 22.2841L96.6842 23.4962C97.0488 24.6151 97.7324 25.5086 98.7349 26.1769C99.7526 26.8295 100.945 27.1559 102.312 27.1559Z" fill="#151E3A" style="fill: rgb(21, 30, 58) !important;"/>
<path d="M108.479 26.8762H111.897V19.4403C111.897 18.7099 112.109 18.1271 112.535 17.692C112.96 17.2413 113.507 17.016 114.175 17.016C114.844 17.016 115.39 17.2413 115.816 17.692C116.241 18.1271 116.454 18.7099 116.454 19.4403V26.8762H119.871V18.6943C119.871 17.7309 119.674 16.8917 119.279 16.1769C118.884 15.4465 118.33 14.8793 117.616 14.4752C116.917 14.0712 116.097 13.8692 115.155 13.8692C114.456 13.8692 113.826 13.9935 113.264 14.2421C112.702 14.4752 112.246 14.8404 111.897 15.3377V9.23047H108.479V26.8762Z" fill="#151E3A" style="fill: rgb(21, 30, 58) !important;"/>
<path d="M121.435 13.0067H124.853V9.51019H121.435V13.0067ZM121.435 26.8762H124.853V14.1489H121.435V26.8762Z" fill="#151E3A" style="fill: rgb(21, 30, 58) !important;"/>
<path d="M126.671 31.5382H130.088V25.8971C130.529 26.3167 131.053 26.6353 131.66 26.8528C132.283 27.0549 132.944 27.1559 133.643 27.1559C134.858 27.1559 135.944 26.8606 136.901 26.2701C137.858 25.6796 138.61 24.8793 139.157 23.8692C139.719 22.8591 140 21.7402 140 20.5125C140 19.2693 139.719 18.1504 139.157 17.1559C138.595 16.1458 137.835 15.3455 136.878 14.7549C135.921 14.1644 134.85 13.8692 133.666 13.8692C132.01 13.8692 130.741 14.4053 129.86 15.4776V14.1489H126.671V31.5382ZM133.233 24.009C132.306 24.009 131.547 23.6905 130.954 23.0533C130.377 22.4006 130.088 21.5537 130.088 20.5125C130.088 19.4869 130.377 18.6477 130.954 17.995C131.547 17.3424 132.306 17.016 133.233 17.016C134.174 17.016 134.949 17.3501 135.557 18.0183C136.164 18.671 136.468 19.5024 136.468 20.5125C136.468 21.5382 136.164 22.3773 135.557 23.03C134.949 23.6827 134.174 24.009 133.233 24.009Z" fill="#151E3A" style="fill: rgb(21, 30, 58) !important;"/>
</svg>